<svg width="24" height="24" viewBox="0 0 24 24" fill="none" xmlns="http://www.w3.org/2000/svg">
  <path d="M15.5 5.5a3.5 3.5 0 1 1-7 0 3.5 3.5 0 0 1 7 0ZM5.75 16.308c0-2.485 2.545-4.308 5.75-4.308s5.75 1.823 5.75 4.308V18.5h-11.5v-2.192Z" fill="#36DF82"/>
  <path d="M16.603 10.136a3.001 3.001 0 1 0 2.497-5.291 4.5 4.5 0 0 1-2.497 5.291Zm-1.06 7.306c.272-.69.806-1.304 1.542-1.777.767-.491 1.699-.781 2.687-.867.433 0 .78.347.78.776v3.926H15.25v-2.058c0-.007.045-.957.293-1.998Z" fill="#36DF82" opacity=".55"/>
</svg>
